<svg width="16" height="18" viewBox="0 0 16 18" fill="none" xmlns="http://www.w3.org/2000/svg">
<path fill-rule="evenodd" clip-rule="evenodd" d="M1.07324e-07 9C1.12263e-07 8.58579 0.335787 8.25 0.75 8.25L7.53701 8.25L5.6989 6.25871C5.41794 5.95434 5.43692 5.47985 5.74129 5.1989C6.04566 4.91794 6.52015 4.93692 6.8011 5.24129L9.8011 8.49129C10.0663 8.77859 10.0663 9.22141 9.8011 9.50871L6.8011 12.7587C6.52015 13.0631 6.04566 13.0821 5.74129 12.8011C5.43692 12.5201 5.41794 12.0457 5.6989 11.7413L7.53701 9.75L0.75 9.75C0.335787 9.75 1.02384e-07 9.41421 1.07324e-07 9ZM8 17.25C8 16.8358 8.33579 16.5 8.75 16.5L13.25 16.5C13.9404 16.5 14.5 15.9404 14.5 15.25L14.5 2.75C14.5 2.05964 13.9404 1.5 13.25 1.5L8.75 1.5C8.33579 1.5 8 1.16421 8 0.75C8 0.335787 8.33579 9.94033e-08 8.75 1.04343e-07L13.25 1.58005e-07C14.7688 1.76116e-07 16 1.23122 16 2.75L16 15.25C16 16.7688 14.7688 18 13.25 18L8.75 18C8.33579 18 8 17.6642 8 17.25Z" fill="#0075FF"/>
</svg>
